<?xml version="1.0" encoding="UTF-8"?>
<svg width="320px" height="48px" viewBox="0 0 320 48" version="1.1" xmlns="http://www.w3.org/2000/svg" xmlns:xlink="http://www.w3.org/1999/xlink">
    <!-- Generator: sketchtool 59 (101010) - https://sketch.com -->
    <title>782F48F1-3F9B-47DA-B1AE-1FDC42247C75</title>
    <desc>Created with sketchtool.</desc>
    <defs>
        <polygon id="path-1" points="0.12034384 0.0378223496 319.565043 0.0378223496 319.565043 47.1002865 0.12034384 47.1002865"></polygon>
    </defs>
    <g id="T12.-Search" stroke="none" stroke-width="1" fill="none" fill-rule="evenodd">
        <g id="Whitelabel-Search-Overlay-1366" transform="translate(-56.000000, -35.000000)">
            <g id="Petronor_colour_width-allBlue" transform="translate(56.000000, 35.000000)">
                <path d="M82.8667622,23.177937 L87.2332378,23.177937 C89.2911175,23.177937 90.2197708,21.9484241 90.2197708,20.5444126 C90.2197708,19.1383954 89.2911175,17.9088825 87.2332378,17.9088825 L82.8667622,17.9088825 L82.8667622,23.177937 Z M79.9544413,25.9378223 L78.0730659,25.9378223 L78.0730659,23.177937 L79.9544413,23.177937 L79.9544413,15.1469914 L87.4578797,15.1469914 C90.9719198,15.1469914 93.130086,17.4575931 93.130086,20.5444126 C93.130086,23.6312321 90.9719198,25.9378223 87.4578797,25.9378223 L82.8667622,25.9378223 L82.8667622,30.9100287 L79.9544413,30.9100287 L79.9544413,25.9378223 L79.9544413,25.9378223 Z" id="Fill-1" fill="#FFFFFF"></path>
                <polyline id="Fill-2" fill="#FFFFFF" points="100.791977 24.2068768 98.9106017 24.2068768 98.9106017 21.4469914 100.791977 21.4469914 100.791977 15.1469914 112.890544 15.1469914 112.890544 17.9088825 103.704298 17.9088825 103.704298 21.4469914 110.102579 21.4469914 110.102579 24.2068768 103.704298 24.2068768 103.704298 28.1481375 112.890544 28.1481375 112.890544 30.9100287 100.791977 30.9100287 100.791977 24.2068768"></polyline>
                <polyline id="Fill-3" fill="#FFFFFF" points="123.964183 17.9088825 119.346991 17.9088825 119.346991 15.1469914 131.493696 15.1469914 131.493696 17.9088825 126.876504 17.9088825 126.876504 30.9100287 123.964183 30.9100287 123.964183 17.9088825"></polyline>
                <path d="M142.14212,23.177937 L146.508596,23.177937 C148.566476,23.177937 149.495129,21.9484241 149.495129,20.5444126 C149.495129,19.1383954 148.566476,17.9088825 146.508596,17.9088825 L142.14212,17.9088825 L142.14212,23.177937 Z M139.229799,25.9378223 L137.348424,25.9378223 L137.348424,23.177937 L139.229799,23.177937 L139.229799,15.1469914 L146.735244,15.1469914 C150.249284,15.1469914 152.405444,17.4575931 152.405444,20.5444126 C152.405444,22.8269341 150.824928,24.6340974 148.716905,25.2879656 L152.658166,30.9100287 L148.993696,30.9100287 L145.706304,25.9378223 L142.14212,25.9378223 L142.14212,30.9100287 L139.229799,30.9100287 L139.229799,25.9378223 L139.229799,25.9378223 Z" id="Fill-4" fill="#FFFFFF"></path>
                <path d="M167.548711,28.4730659 C170.384814,28.4730659 172.944126,26.0902579 172.944126,23.0275072 C172.944126,19.9667622 170.384814,17.5819484 167.548711,17.5819484 C164.712607,17.5819484 162.153295,19.9667622 162.153295,23.0275072 C162.153295,26.0902579 164.712607,28.4730659 167.548711,28.4730659 Z M167.548711,14.822063 C172.266189,14.822063 176.004871,18.4103152 176.004871,23.0275072 C176.004871,27.6467049 172.266189,31.234957 167.548711,31.234957 C162.829226,31.234957 159.090544,27.6467049 159.090544,23.0275072 C159.090544,18.4103152 162.829226,14.822063 167.548711,14.822063 L167.548711,14.822063 Z" id="Fill-5" fill="#FFFFFF"></path>
                <polyline id="Fill-6" fill="#FFFFFF" points="186.603152 21.2464183 186.603152 30.9100287 183.692837 30.9100287 183.692837 14.822063 193.859885 24.8106017 193.859885 15.1469914 196.770201 15.1469914 196.770201 31.234957 186.603152 21.2464183"></polyline>
                <path d="M212.914327,28.4730659 C215.75043,28.4730659 218.311748,26.0902579 218.311748,23.0275072 C218.311748,19.9667622 215.75043,17.5819484 212.914327,17.5819484 C210.080229,17.5819484 207.518911,19.9667622 207.518911,23.0275072 C207.518911,26.0902579 210.080229,28.4730659 212.914327,28.4730659 Z M212.914327,14.822063 C217.633811,14.822063 221.370487,18.4103152 221.370487,23.0275072 C221.370487,27.6467049 217.633811,31.234957 212.914327,31.234957 C208.196848,31.234957 204.458166,27.6467049 204.458166,23.0275072 C204.458166,18.4103152 208.196848,14.822063 212.914327,14.822063 L212.914327,14.822063 Z" id="Fill-7" fill="#FFFFFF"></path>
                <path d="M232.4,23.177937 L236.76447,23.177937 C238.824355,23.177937 239.753009,21.9484241 239.753009,20.5444126 C239.753009,19.1383954 238.824355,17.9088825 236.76447,17.9088825 L232.4,17.9088825 L232.4,23.177937 Z M229.487679,25.9378223 L227.604298,25.9378223 L227.604298,23.177937 L229.487679,23.177937 L229.487679,15.1469914 L236.991117,15.1469914 C240.505158,15.1469914 242.663324,17.4575931 242.663324,20.5444126 C242.663324,22.8269341 241.082808,24.6340974 238.974785,25.2879656 L242.91404,30.9100287 L239.251576,30.9100287 L235.962178,25.9378223 L232.4,25.9378223 L232.4,30.9100287 L229.487679,30.9100287 L229.487679,25.9378223 L229.487679,25.9378223 Z" id="Fill-8" fill="#FFFFFF"></path>
                <polyline id="Fill-9" fill="#FFFFFF" points="264.738395 24.2068768 262.853009 24.2068768 262.853009 21.4469914 264.738395 21.4469914 264.738395 15.1469914 276.832951 15.1469914 276.832951 17.9088825 267.648711 17.9088825 267.648711 21.4469914 274.046991 21.4469914 274.046991 24.2068768 267.648711 24.2068768 267.648711 28.1481375 276.832951 28.1481375 276.832951 30.9100287 264.738395 30.9100287 264.738395 24.2068768"></polyline>
                <path d="M292.325215,18.0593123 C291.902006,17.4575931 291.17192,16.9802292 290.243266,16.9802292 C288.939542,16.9802292 287.834384,17.8848138 287.834384,19.0882521 C287.834384,20.4681948 288.612607,21.3467049 290.317479,21.3467049 L291.097708,21.3467049 L291.097708,23.5790831 C290.897135,23.5289398 290.644413,23.5048711 290.267335,23.5048711 C288.462178,23.5048711 286.929799,24.5077364 286.929799,26.2406877 C286.929799,27.5945559 287.960745,28.926361 290.167049,28.926361 C293.029226,28.926361 294.082235,26.6157593 294.082235,23.2802292 C294.082235,22.552149 294.032092,21.9484241 294.008023,21.4469914 L298.326361,21.4469914 L298.326361,23.2040115 L296.691691,23.2040115 L296.691691,24.182808 C296.691691,28.1982808 294.182521,31.234957 290.118911,31.234957 C286.955874,31.234957 284.169914,29.5020057 284.169914,26.3169054 C284.169914,24.4575931 285.222923,22.8770774 287.282808,22.3014327 L287.282808,22.2492837 C286.103438,21.874212 285.222923,20.6687679 285.222923,19.1383954 C285.222923,16.9561605 286.979943,14.822063 290.419771,14.822063 C292.325215,14.822063 293.883668,15.574212 294.760172,16.8799427 L292.325215,18.0593123" id="Fill-10" fill="#FFFFFF"></path>
                <g id="Group-16">
                    <mask id="mask-2" fill="white">
                        <use xlink:href="#path-1"></use>
                    </mask>
                    <g id="Clip-12"></g>
                    <path d="M309.299713,23.177937 L313.666189,23.177937 C315.724069,23.177937 316.652722,21.9484241 316.652722,20.5444126 C316.652722,19.1383954 315.724069,17.9088825 313.666189,17.9088825 L309.299713,17.9088825 L309.299713,23.177937 Z M306.387393,25.9378223 L304.508023,25.9378223 L304.508023,23.177937 L306.387393,23.177937 L306.387393,15.1469914 L313.892837,15.1469914 C317.406877,15.1469914 319.565043,17.4575931 319.565043,20.5444126 C319.565043,23.6312321 317.406877,25.9378223 313.892837,25.9378223 L309.299713,25.9378223 L309.299713,30.9100287 L306.387393,30.9100287 L306.387393,25.9378223 L306.387393,25.9378223 Z" id="Fill-11" fill="#FFFFFF" mask="url(#mask-2)"></path>
                    <path d="M0,0.0839541547 C0,0.0839541547 0.958739255,2.1017192 2.6234957,4.66103152 C4.61719198,7.7277937 7.83638968,7.42091691 11.974212,7.56532951 L19.8767908,7.56532951 C25.4707736,7.56532951 27.9939828,10.9068768 27.9939828,14.7297994 C27.9939828,18.5487106 25.4707736,21.8942693 19.8767908,21.8942693 L8.0008596,21.8942693 L8.0008596,21.8922636 L0.0862464183,21.8922636 L0.0862464183,43.9893983 C0.0862464183,44.6733524 0.0802292264,47.2186246 3.83094556,47.2186246 C7.71604585,47.2186246 7.57163324,43.9893983 7.57163324,43.9893983 C7.57163324,44.5931232 7.57163324,29.4017192 7.57163324,29.4017192 L20.4885387,29.4017192 C30.0398281,29.4017192 35.9106017,23.1197708 35.9106017,14.7297994 C35.9106017,6.33581662 30.0518625,0.0859598854 20.4985673,0.0859598854 L0,0.0839541547" id="Fill-13" fill="#FFFFFF" mask="url(#mask-2)"></path>
                    <polyline id="Fill-14" fill="#0E2D37" mask="url(#mask-2)" points="42.9166189 3.47965616 42.9166189 3.7965616 42.9206304 3.47965616 42.9166189 3.47965616"></polyline>
                    <path d="M50.4260745,42.7117479 L50.422063,37.4065903 L50.4260745,37.4065903 L50.4260745,3.48567335 C50.4260745,3.42550143 50.4240688,3.34126074 50.422063,3.2530086 C50.422063,2.55100287 50.4060172,0.0378223496 46.6753582,0.0378223496 C42.7902579,0.0378223496 42.9346705,3.26704871 42.9346705,3.26704871 C42.9346705,3.29713467 42.9346705,3.38538682 42.9346705,3.5217765 C42.9226361,3.70630372 42.9166189,3.87277937 42.9166189,3.9991404 L42.9166189,35.747851 L35.9647564,28.0618911 C34.3561605,29.887106 32.2340974,31.2710602 29.660745,32.0873926 L41.4985673,44.9621777 C42.5335244,46.0372493 43.57851,47.2186246 46.6011461,47.2186246 C48.5426934,47.2186246 49.4793696,46.4805158 49.9747851,45.6340974 C50.5363897,44.6733524 50.4260745,42.7117479 50.4260745,42.7117479" id="Fill-15" fill="#FFFFFF" mask="url(#mask-2)"></path>
                </g>
            </g>
        </g>
    </g>
</svg>