<?xml version="1.0" encoding="utf-8"?>
<!-- Generator: Adobe Illustrator 26.0.0, SVG Export Plug-In . SVG Version: 6.00 Build 0)  -->
<svg version="1.1" id="Layer_1" xmlns="http://www.w3.org/2000/svg" xmlns:xlink="http://www.w3.org/1999/xlink" x="0px" y="0px"
	 viewBox="0 0 576 360" style="enable-background:new 0 0 576 360;" xml:space="preserve">
<style type="text/css">
	.st0{fill:#1D1D1B;}
	.st1{font-family:'AvenirLTStd-Roman';}
	.st2{font-size:20.0961px;}
	.st3{letter-spacing:4;}
	.st4{fill:#2A3989;}
	.st5{fill-rule:evenodd;clip-rule:evenodd;fill:#F90920;}
</style>
<g>
	<text transform="matrix(1 0 0 1 167.9274 226.7625)" class="st0 st1 st2 st3">OCEAN &amp; ENERGY</text>
	<path class="st4" d="M144.82,200.91v-34.29h10.45v25.82h23.61v8.47H144.82z"/>
	<path class="st4" d="M184.39,166.62h38v7.79h-27.71v5.85h26.15v6.78h-26.15v6.08h28.06v7.79h-38.36V166.62z"/>
	<path class="st4" d="M226.36,200.91l19.29-34.29h13.99l18.76,34.29h-11.4l-3.41-6.13h-22.14l-3.28,6.13H226.36z M245.23,187.64
		h14.74L252.51,174L245.23,187.64z"/>
	<path class="st4" d="M334.82,166.62h10.45v16.9c0,0.29,0,0.58,0,0.88c0,0.25,0,0.39,0,0.4c0,2.03,0.07,3.44,0.22,4.25
		c0.4,2.14,1.94,3.38,4.62,3.72c1.19,0.15,3.04,0.23,5.57,0.23c3.75,0,6.37-0.06,7.88-0.18c2.36-0.18,3.81-1.07,4.34-2.66
		c0.35-1.04,0.52-2.65,0.5-4.85v-2.96v-15.72h10.42v17.96c0,4.24-0.19,7.18-0.58,8.82c-0.79,3.35-3.05,5.64-6.78,6.86
		c-1.79,0.59-4.3,0.92-7.51,1.01c1.39-0.03-1.14-0.05-7.58-0.05c-5.29,0-8.98-0.1-11.08-0.3c-5.59-0.54-8.88-3.02-9.87-7.46
		c-0.4-1.81-0.6-4.61-0.6-8.39V166.62z"/>
	<path class="st4" d="M387.55,166.62h38v7.79h-27.71v5.85H424v6.78h-26.15v6.08h28.06v7.79h-38.36V166.62z"/>
	<path class="st5" d="M287.29,160.45c2.72-15.04,35.14-8.4,23.53-37.65C313.09,150.56,282.49,137.35,287.29,160.45z"/>
	<path class="st4" d="M303.33,181.59V188h13.21c0.02,0.47,0.02,0.81,0.02,1.03c0,1.41-0.31,2.41-0.92,3
		c-0.61,0.59-1.63,0.97-3.05,1.12c-0.64,0.07-2.38,0.1-5.22,0.1c-4.94,0-7.64-0.01-8.09-0.03c-3.17-0.12-5.15-0.94-5.95-2.48
		c-0.52-0.98-0.78-3.06-0.78-6.21c0-2.52,0.05-4.37,0.15-5.56c0.07-0.85,0.25-1.57,0.52-2.17c0-0.01,0-0.02,0.01-0.03
		c0.27-0.83,0.73-1.67,1.32-2.49c1.35-1.87,3.22-3.32,5.3-4.31c14.83-7.07,32.1-13.23,20.23-43.16
		c3.38,41.41-39.51,25.15-37.94,53.92c-0.04,1.08-0.07,2.23-0.07,3.49c0,5.02,0.35,8.53,1.06,10.53c1.31,3.7,4.56,5.75,9.77,6.15
		c2.18,0.17,5.71,0.25,10.6,0.25c7.49,0,11.85-0.02,13.09-0.05c5.51-0.15,8.71-2.33,9.6-6.53c0.35-1.66,0.53-4.4,0.53-8.24v-4.75
		H303.33z"/>
</g>
</svg>
